<?xml version="1.0" standalone="no"?>
<!DOCTYPE svg PUBLIC "-//W3C//DTD SVG 20010904//EN"
 "http://www.w3.org/TR/2001/REC-SVG-20010904/DTD/svg10.dtd">
<svg version="1.0" xmlns="http://www.w3.org/2000/svg"
 width="1024.000000pt" height="1024.000000pt" viewBox="0 0 1024.000000 1024.000000"
 preserveAspectRatio="xMidYMid meet">

<g transform="translate(0.000000,1024.000000) scale(0.100000,-0.100000)"
fill="#000000" stroke="none">
<path d="M1403 9740 c-14 -6 -20 -15 -17 -27 2 -10 101 -576 219 -1258 118
-682 257 -1483 309 -1780 60 -347 90 -544 84 -552 -5 -6 -11 -53 -14 -105 -7
-146 -43 -371 -60 -381 -23 -13 -44 -63 -44 -106 0 -26 -9 -53 -25 -77 -14
-21 -33 -59 -43 -86 -12 -36 -22 -48 -37 -48 -21 0 -64 -25 -77 -44 -20 -28
-26 -81 -17 -135 33 -177 165 -397 403 -673 42 -48 72 -89 68 -91 -4 -3 -61
-12 -127 -22 -66 -10 -126 -23 -133 -29 -15 -15 -14 -18 224 -776 374 -1187
597 -1878 622 -1925 41 -77 141 -170 223 -210 216 -103 461 -48 761 172 188
138 473 440 705 746 41 54 76 97 78 95 3 -3 -10 -568 -19 -816 -5 -143 -13
-129 124 -220 316 -210 762 -363 1220 -418 160 -19 530 -22 695 -5 503 52
1034 210 1525 454 l165 82 12 43 c19 69 52 278 62 395 9 105 10 109 48 153
141 166 233 322 289 494 25 76 28 99 29 225 0 132 -2 145 -31 227 -43 121 -93
203 -255 423 -151 204 -195 281 -208 363 -17 112 12 180 134 312 167 182 264
330 311 475 36 108 37 232 5 325 -51 146 -131 241 -371 444 -248 209 -323 294
-356 401 -39 131 -8 235 143 487 93 156 159 300 184 403 50 206 16 454 -92
667 -33 65 -147 236 -284 423 -128 176 -205 307 -285 488 -84 191 -125 271
-204 405 -394 660 -928 923 -1551 762 -257 -66 -549 -217 -779 -402 -64 -52
-73 -56 -135 -61 -144 -12 -282 -88 -422 -234 -252 -262 -433 -680 -504 -1167
-49 -338 -35 -842 36 -1236 134 -748 477 -1262 987 -1480 143 -61 151 -65 227
-126 96 -76 254 -169 353 -206 95 -36 94 -33 63 -163 -26 -105 -70 -210 -122
-290 -42 -64 -43 -64 -98 -70 -183 -21 -433 -89 -628 -170 -558 -234 -1013
-640 -1349 -1201 l-91 -152 -283 1040 c-191 701 -288 1042 -298 1046 -8 3 -34
-2 -58 -11 l-43 -16 21 52 c37 91 85 250 98 323 28 156 2 227 -148 406 -100
119 -129 169 -157 270 -17 65 -46 92 -92 86 l-27 -3 -432 2032 c-237 1117
-434 2038 -437 2047 -7 17 -39 20 -74 6z m61 -37 c4 -16 199 -936 435 -2046
l428 -2017 -23 -47 c-13 -25 -24 -64 -24 -86 0 -54 49 -195 115 -333 51 -105
60 -136 104 -342 l48 -227 -116 -47 c-64 -25 -117 -45 -119 -44 -8 8 -72 408
-70 441 1 27 9 47 24 62 34 32 38 63 15 126 l-19 57 29 29 c16 16 29 40 29 54
0 44 -59 144 -125 210 -75 75 -75 75 -44 210 12 50 22 128 23 172 1 69 -3 88
-27 137 -19 39 -43 68 -72 89 -24 17 -46 41 -49 53 -2 11 -143 817 -312 1790
-317 1829 -310 1785 -267 1786 6 0 14 -12 17 -27z m3911 -1647 c33 -9 103 -37
155 -63 85 -41 107 -58 210 -162 64 -64 176 -180 249 -259 162 -173 326 -316
483 -421 l117 -78 -77 -13 c-42 -6 -151 -27 -240 -46 -213 -44 -300 -45 -489
-4 -342 74 -548 94 -870 87 -210 -4 -324 -14 -387 -33 -17 -6 -18 -2 -12 41
23 152 104 426 166 561 93 201 236 355 373 400 54 18 239 12 322 -10z m-158
-1046 c-43 -13 -127 -70 -127 -87 0 -8 6 -13 13 -10 154 69 226 80 337 53 72
-18 96 -15 86 11 -14 34 111 -18 163 -69 59 -58 75 -101 79 -221 7 -171 -21
-276 -94 -357 -80 -88 -160 -109 -439 -117 -302 -8 -440 23 -541 121 -71 69
-84 116 -84 300 0 155 9 204 47 254 53 71 145 106 316 121 127 11 281 12 244
1z m1504 -46 c30 -9 71 -25 92 -36 43 -22 57 -17 39 12 -15 24 -17 24 51 1 86
-30 204 -51 354 -64 l138 -12 14 -40 c18 -49 19 -310 3 -370 -14 -50 -55 -113
-94 -144 -44 -36 -141 -71 -238 -88 -99 -18 -447 -13 -540 7 -155 34 -241 130
-271 304 -15 87 -7 238 15 291 30 71 111 139 152 129 10 -2 42 2 69 10 68 19
150 19 216 0z m-2323 -118 c70 -76 98 -150 128 -340 28 -178 72 -239 206 -286
155 -54 544 -86 733 -59 187 26 262 87 319 260 46 144 95 221 160 250 80 36
151 19 208 -52 44 -54 59 -84 88 -174 81 -248 198 -306 580 -291 421 17 615
81 659 218 15 47 38 172 46 246 9 96 42 188 79 230 l33 36 29 -23 c42 -33 80
-93 106 -169 32 -94 32 -256 0 -359 -36 -115 -108 -195 -180 -199 -53 -2 -82
-20 -82 -49 0 -40 -66 -286 -106 -391 -241 -648 -722 -1108 -1254 -1200 -116
-20 -276 -14 -397 16 -581 141 -1088 743 -1249 1482 -16 75 -33 128 -43 136
-10 8 -29 11 -54 7 -81 -14 -157 53 -209 184 -18 47 -22 77 -22 186 -1 147 15
214 68 294 28 40 86 91 106 91 4 0 26 -20 48 -44z m-2293 -849 c20 -40 25 -66
25 -121 0 -76 -41 -271 -56 -271 -5 1 -27 9 -49 20 -22 11 -41 20 -42 20 -2 1
6 60 16 131 11 71 22 168 26 216 l7 87 24 -15 c13 -9 35 -39 49 -67z m303
-389 c5 -7 17 -41 26 -76 21 -83 50 -130 161 -264 105 -125 136 -180 143 -250
8 -82 -27 -227 -100 -415 l-39 -102 -93 -30 c-50 -16 -138 -41 -195 -56 l-103
-26 -41 47 c-105 119 -220 262 -270 337 -148 221 -215 429 -156 488 49 49 206
1 318 -98 65 -57 141 -157 141 -185 0 -19 -5 -20 -53 -16 -64 5 -130 36 -189
87 -42 37 -68 43 -68 16 0 -22 80 -86 148 -118 48 -23 79 -30 122 -30 l56 0
33 -191 c40 -236 40 -236 57 -236 17 0 246 88 257 99 5 5 -14 113 -43 240 -28
128 -48 240 -45 250 3 10 -17 65 -49 132 -29 63 -66 152 -80 199 -24 75 -26
90 -16 130 17 68 52 99 78 68z m-387 -28 c56 -29 186 -155 220 -215 32 -56 37
-99 13 -113 -14 -8 -28 6 -75 68 -84 111 -170 188 -220 196 -42 7 -50 25 -29
65 14 24 41 24 91 -1z m8 -156 c63 -56 166 -192 197 -259 45 -96 21 -160 -32
-84 -66 96 -207 202 -304 230 -25 7 -46 13 -48 14 -7 5 41 102 60 123 34 35
69 28 127 -24z m4323 -1020 c18 -140 77 -305 148 -412 l22 -32 -83 -39 c-269
-126 -592 -128 -856 -6 -40 18 -73 37 -73 40 0 4 13 25 29 48 68 100 127 244
151 372 8 39 15 71 16 73 1 2 42 -4 90 -14 117 -22 345 -15 454 14 41 11 80
19 85 18 6 -2 13 -29 17 -62z m-4422 -134 c0 -5 -2 -10 -4 -10 -3 0 -8 5 -11
10 -3 6 -1 10 4 10 6 0 11 -4 11 -10z m4702 -352 c3 -7 -10 -37 -29 -65 -136
-212 -159 -516 -62 -808 l30 -91 -221 -335 c-121 -184 -219 -323 -216 -309 3
14 62 360 132 770 69 410 126 745 127 746 5 5 223 104 229 104 3 0 8 -6 10
-12z m-937 -114 c33 -10 63 -20 67 -24 9 -7 261 -1487 256 -1502 -2 -5 -137
192 -301 438 l-297 449 100 96 c55 54 100 101 100 106 0 19 -38 43 -153 98
-64 31 -117 58 -117 62 0 3 39 81 87 173 l87 167 56 -22 c30 -13 82 -31 115
-41z"/>
<path d="M5320 6688 c-68 -19 -120 -88 -120 -158 0 -90 73 -162 165 -162 135
0 214 160 128 262 -45 54 -111 76 -173 58z"/>
<path d="M6598 6688 c-47 -12 -105 -75 -114 -122 -19 -105 56 -198 161 -198
51 0 94 21 128 62 100 119 -22 299 -175 258z"/>
<path d="M5500 5600 c-13 -25 15 -110 58 -172 94 -137 240 -208 429 -208 157
0 281 49 373 146 61 64 113 168 108 216 -3 29 -6 33 -32 33 -31 0 -33 -2 -71
-91 -71 -166 -266 -254 -475 -214 -65 12 -151 51 -193 86 -45 38 -95 111 -109
159 -6 22 -16 46 -21 53 -15 19 -55 14 -67 -8z"/>
</g>
</svg>
