<?xml version="1.0" encoding="UTF-8"?>
<svg version="1.1" xmlns="http://www.w3.org/2000/svg" width="48" height="48">
<path d="M0 0 C2.25 2.125 2.25 2.125 4 5 C4.8971875 6.423125 4.8971875 6.423125 5.8125 7.875 C7.25744382 11.67748373 6.59767192 14.04042356 6 18 C7.29264699 19.96431405 7.29264699 19.96431405 9 21 C8.62875 21.70125 8.2575 22.4025 7.875 23.125 C6.68815621 26.02904696 6.68815621 26.02904696 8 29 C9 32 9 32 8.625 34.6875 C6.15574557 38.20143899 3.13001935 39.156072 -1 40 C-5.23497019 39.92941716 -7.19248294 39.68328366 -10.4375 36.9375 C-10.953125 36.298125 -11.46875 35.65875 -12 35 C-13.32 35.99 -14.64 36.98 -16 38 C-17.85546875 37.46484375 -17.85546875 37.46484375 -20 36 C-20.98001143 33.46021061 -21.69294556 31.18635006 -22.3125 28.5625 C-22.49361328 27.88123047 -22.67472656 27.19996094 -22.86132812 26.49804688 C-23.70291709 23.15461367 -24.11035111 21.33105334 -23 18 C-21.68 18.33 -20.36 18.66 -19 19 C-18.01 22.96 -17.02 26.92 -16 31 C-15.278125 30.195625 -14.55625 29.39125 -13.8125 28.5625 C-10.97484311 25.97707928 -9.72833853 25.31957187 -6 25 C-6.763125 24.29875 -7.52625 23.5975 -8.3125 22.875 C-11.5395588 19.42279757 -13.96843934 16.62855189 -14.02734375 11.72265625 C-13.66743772 7.68516497 -13.29452895 5.44179343 -11 2 C-7.4897104 -0.47020379 -4.18542235 -0.52317779 0 0 Z " fill="#527761" transform="translate(32,4)"/>
<path d="M0 0 C2.25 2.125 2.25 2.125 4 5 C4.8971875 6.423125 4.8971875 6.423125 5.8125 7.875 C7.25744382 11.67748373 6.59767192 14.04042356 6 18 C7.29264699 19.96431405 7.29264699 19.96431405 9 21 C8.62875 21.70125 8.2575 22.4025 7.875 23.125 C6.76734541 26.76443651 7.55874591 28.55700411 9 32 C7.25 34 7.25 34 5 36 C3.68 36 2.36 36 1 36 C-1.14083846 31.57560053 -2.24135307 26.91988945 -2 22 C-0.25 19.8125 -0.25 19.8125 2 18 C3.06011943 16.03120677 4.07470849 14.03564133 5 12 C3.9275 11.9175 2.855 11.835 1.75 11.75 C-2.40175033 10.91964993 -3.17927423 9.91799217 -6 7 C-8.21858253 7.13641377 -8.21858253 7.13641377 -10 8 C-10 9.32 -10 10.64 -10 12 C-10.66 12 -11.32 12 -12 12 C-11.01 14.97 -10.02 17.94 -9 21 C-12.26889976 18.57468728 -13.3550262 16.55007915 -13.9375 12.625 C-14.23510804 8.32385519 -13.53805366 5.58828275 -11 2 C-7.65967607 -0.62454023 -4.10782912 -0.51347864 0 0 Z " fill="#4A281B" transform="translate(32,4)"/>
<path d="M0 0 C2.44725398 0.23683103 3.64043366 0.60618925 5.3125 2.4375 C7.84065298 4.77838239 10.71112757 5.19329544 14 6 C12.85569823 9.87302138 11.76679902 13.00263439 9 16 C8.34 16 7.68 16 7 16 C7 17.32 7 18.64 7 20 C5.68 20 4.36 20 3 20 C-3.59869504 9.42296128 -3.59869504 9.42296128 -3 4.9375 C-2 2 -2 2 0 0 Z " fill="#CB965E" transform="translate(23,10)"/>
<path d="M0 0 C2.39830686 0.31977425 3.65948982 0.62706028 5.3125 2.4375 C7.84065298 4.77838239 10.71112757 5.19329544 14 6 C13.34 7.98 12.68 9.96 12 12 C11.67 11.34 11.34 10.68 11 10 C8.87423218 9.53348793 8.87423218 9.53348793 6.4375 9.375 C5.61121094 9.30023438 4.78492188 9.22546875 3.93359375 9.1484375 C3.29550781 9.09945313 2.65742188 9.05046875 2 9 C1.67 8.01 1.34 7.02 1 6 C0.01 5.67 -0.98 5.34 -2 5 C-1.125 1.125 -1.125 1.125 0 0 Z " fill="#9C7247" transform="translate(23,10)"/>
<path d="M0 0 C2.88575819 0.39803561 3.82189513 0.79009069 5.75 3.0625 C6.1625 3.701875 6.575 4.34125 7 5 C4.36 4.67 1.72 4.34 -1 4 C-0.67 2.68 -0.34 1.36 0 0 Z " fill="#C8935C" transform="translate(23,10)"/>
<path d="M0 0 C0.33 2.31 0.66 4.62 1 7 C0.34 7 -0.32 7 -1 7 C-1.66 7.66 -2.32 8.32 -3 9 C-3.33 6.36 -3.66 3.72 -4 1 C-1 0 -1 0 0 0 Z " fill="#5D6557" transform="translate(31,29)"/>
<path d="M0 0 C2.0625 0.4375 2.0625 0.4375 4 1 C3.67 2.32 3.34 3.64 3 5 C2.01 5 1.02 5 0 5 C-0.5625 3.0625 -0.5625 3.0625 -1 1 C-0.67 0.67 -0.34 0.34 0 0 Z " fill="#B57E62" transform="translate(9,22)"/>
<path d="M0 0 C1.32 0 2.64 0 4 0 C4.66 1.32 5.32 2.64 6 4 C4.35 4.33 2.7 4.66 1 5 C0.67 3.35 0.34 1.7 0 0 Z " fill="#B58753" transform="translate(20,16)"/>
<path d="M0 0 C1.65 0 3.3 0 5 0 C5 1.32 5 2.64 5 4 C3.68 4 2.36 4 1 4 C0.67 2.68 0.34 1.36 0 0 Z " fill="#BF8357" transform="translate(25,26)"/>
</svg>
